<mxfile host="65bd71144e">
    <diagram id="rS5jierEilmL0hbu3_fT" name="Page-1">
        <mxGraphModel dx="901" dy="775" grid="1" gridSize="10" guides="1" tooltips="1" connect="1" arrows="1" fold="1" page="1" pageScale="1" pageWidth="500" pageHeight="700" math="0" shadow="0">
            <root>
                <mxCell id="0"/>
                <mxCell id="1" parent="0"/>
                <mxCell id="3" value="" style="html=1;" vertex="1" parent="1">
                    <mxGeometry x="40" y="45" width="170" height="300" as="geometry"/>
                </mxCell>
                <mxCell id="4" value="Service 1" style="html=1;" vertex="1" parent="1">
                    <mxGeometry x="50" y="235" width="70" height="40" as="geometry"/>
                </mxCell>
                <mxCell id="5" value="Service 2" style="html=1;" vertex="1" parent="1">
                    <mxGeometry x="130" y="235" width="70" height="40" as="geometry"/>
                </mxCell>
                <mxCell id="6" value="Local Storage" style="shape=cylinder3;whiteSpace=wrap;html=1;boundedLbl=1;backgroundOutline=1;size=15;" vertex="1" parent="1">
                    <mxGeometry x="50" y="120" width="50" height="70" as="geometry"/>
                </mxCell>
                <mxCell id="7" value="In-Memory&lt;br&gt;Data-Grid" style="html=1;" vertex="1" parent="1">
                    <mxGeometry x="110" y="165" width="90" height="50" as="geometry"/>
                </mxCell>
                <mxCell id="9" value="" style="endArrow=classic;html=1;exitX=0.5;exitY=0;exitDx=0;exitDy=0;entryX=0;entryY=0.5;entryDx=0;entryDy=0;rounded=0;" edge="1" parent="1" source="4" target="7">
                    <mxGeometry width="50" height="50" relative="1" as="geometry">
                        <mxPoint x="390" y="355" as="sourcePoint"/>
                        <mxPoint x="440" y="305" as="targetPoint"/>
                        <Array as="points">
                            <mxPoint x="85" y="205"/>
                        </Array>
                    </mxGeometry>
                </mxCell>
                <mxCell id="10" value="" style="endArrow=classic;html=1;rounded=0;entryX=0.5;entryY=1;entryDx=0;entryDy=0;exitX=0.5;exitY=0;exitDx=0;exitDy=0;" edge="1" parent="1" source="5" target="7">
                    <mxGeometry width="50" height="50" relative="1" as="geometry">
                        <mxPoint x="390" y="355" as="sourcePoint"/>
                        <mxPoint x="440" y="305" as="targetPoint"/>
                    </mxGeometry>
                </mxCell>
                <mxCell id="11" value="" style="endArrow=classic;html=1;rounded=0;entryX=1;entryY=0;entryDx=0;entryDy=25;entryPerimeter=0;exitX=0.5;exitY=0;exitDx=0;exitDy=0;" edge="1" parent="1" source="7" target="6">
                    <mxGeometry width="50" height="50" relative="1" as="geometry">
                        <mxPoint x="390" y="355" as="sourcePoint"/>
                        <mxPoint x="440" y="305" as="targetPoint"/>
                        <Array as="points">
                            <mxPoint x="140" y="145"/>
                        </Array>
                    </mxGeometry>
                </mxCell>
                <mxCell id="12" value="User 1" style="shape=umlActor;verticalLabelPosition=bottom;verticalAlign=top;html=1;outlineConnect=0;" vertex="1" parent="1">
                    <mxGeometry x="210" y="585" width="30" height="60" as="geometry"/>
                </mxCell>
                <mxCell id="13" value="&lt;span style=&quot;color: rgb(31, 35, 40); font-family: -apple-system, BlinkMacSystemFont, &amp;quot;Segoe UI&amp;quot;, &amp;quot;Noto Sans&amp;quot;, Helvetica, Arial, sans-serif, &amp;quot;Apple Color Emoji&amp;quot;, &amp;quot;Segoe UI Emoji&amp;quot;; font-size: 16px; text-align: start; background-color: rgb(255, 255, 255);&quot;&gt;&lt;br&gt;&lt;/span&gt;" style="html=1;" vertex="1" parent="1">
                    <mxGeometry x="80" y="385" width="550" height="150" as="geometry"/>
                </mxCell>
                <mxCell id="14" value="Messaging Grid" style="html=1;" vertex="1" parent="1">
                    <mxGeometry x="290" y="445" width="110" height="50" as="geometry"/>
                </mxCell>
                <mxCell id="15" value="Process Unit 1" style="text;align=center;fontStyle=1;verticalAlign=middle;spacingLeft=3;spacingRight=3;strokeColor=none;rotatable=0;points=[[0,0.5],[1,0.5]];portConstraint=eastwest;" vertex="1" parent="1">
                    <mxGeometry x="85" y="65" width="80" height="26" as="geometry"/>
                </mxCell>
                <mxCell id="16" value="Virtualized Middleware" style="text;align=center;fontStyle=1;verticalAlign=middle;spacingLeft=3;spacingRight=3;strokeColor=none;rotatable=0;points=[[0,0.5],[1,0.5]];portConstraint=eastwest;" vertex="1" parent="1">
                    <mxGeometry x="310" y="395" width="80" height="26" as="geometry"/>
                </mxCell>
                <mxCell id="17" value="API Gateway" style="html=1;" vertex="1" parent="1">
                    <mxGeometry x="80" y="305" width="90" height="30" as="geometry"/>
                </mxCell>
                <mxCell id="18" value="" style="endArrow=classic;html=1;rounded=0;entryX=0.5;entryY=1;entryDx=0;entryDy=0;exitX=0.25;exitY=0;exitDx=0;exitDy=0;" edge="1" parent="1" source="17" target="4">
                    <mxGeometry width="50" height="50" relative="1" as="geometry">
                        <mxPoint x="175" y="245" as="sourcePoint"/>
                        <mxPoint x="165" y="225" as="targetPoint"/>
                    </mxGeometry>
                </mxCell>
                <mxCell id="19" value="" style="endArrow=classic;html=1;rounded=0;entryX=0.5;entryY=1;entryDx=0;entryDy=0;exitX=0.75;exitY=0;exitDx=0;exitDy=0;" edge="1" parent="1" source="17" target="5">
                    <mxGeometry width="50" height="50" relative="1" as="geometry">
                        <mxPoint x="112.5" y="315" as="sourcePoint"/>
                        <mxPoint x="95" y="285" as="targetPoint"/>
                    </mxGeometry>
                </mxCell>
                <mxCell id="20" value="Data Grid" style="html=1;" vertex="1" parent="1">
                    <mxGeometry x="110" y="445" width="120" height="50" as="geometry"/>
                </mxCell>
                <mxCell id="23" value="User 2" style="shape=umlActor;verticalLabelPosition=bottom;verticalAlign=top;html=1;outlineConnect=0;" vertex="1" parent="1">
                    <mxGeometry x="440" y="585" width="30" height="60" as="geometry"/>
                </mxCell>
                <mxCell id="24" value="Deployment Manager" style="html=1;" vertex="1" parent="1">
                    <mxGeometry x="480" y="445" width="120" height="50" as="geometry"/>
                </mxCell>
                <mxCell id="25" value="" style="html=1;" vertex="1" parent="1">
                    <mxGeometry x="300" y="45" width="170" height="300" as="geometry"/>
                </mxCell>
                <mxCell id="26" value="Service 1" style="html=1;" vertex="1" parent="1">
                    <mxGeometry x="310" y="235" width="70" height="40" as="geometry"/>
                </mxCell>
                <mxCell id="27" value="Service 2" style="html=1;" vertex="1" parent="1">
                    <mxGeometry x="390" y="235" width="70" height="40" as="geometry"/>
                </mxCell>
                <mxCell id="28" value="Local Storage" style="shape=cylinder3;whiteSpace=wrap;html=1;boundedLbl=1;backgroundOutline=1;size=15;" vertex="1" parent="1">
                    <mxGeometry x="310" y="120" width="50" height="70" as="geometry"/>
                </mxCell>
                <mxCell id="29" value="In-Memory&lt;br&gt;Data-Grid" style="html=1;" vertex="1" parent="1">
                    <mxGeometry x="370" y="165" width="90" height="50" as="geometry"/>
                </mxCell>
                <mxCell id="30" value="" style="endArrow=classic;html=1;exitX=0.5;exitY=0;exitDx=0;exitDy=0;entryX=0.25;entryY=1;entryDx=0;entryDy=0;rounded=0;" edge="1" parent="1" source="26" target="29">
                    <mxGeometry width="50" height="50" relative="1" as="geometry">
                        <mxPoint x="650" y="355" as="sourcePoint"/>
                        <mxPoint x="700" y="305" as="targetPoint"/>
                        <Array as="points"/>
                    </mxGeometry>
                </mxCell>
                <mxCell id="31" value="" style="endArrow=classic;html=1;rounded=0;entryX=0.5;entryY=1;entryDx=0;entryDy=0;exitX=0.5;exitY=0;exitDx=0;exitDy=0;" edge="1" parent="1" source="27" target="29">
                    <mxGeometry width="50" height="50" relative="1" as="geometry">
                        <mxPoint x="650" y="355" as="sourcePoint"/>
                        <mxPoint x="700" y="305" as="targetPoint"/>
                    </mxGeometry>
                </mxCell>
                <mxCell id="32" value="" style="endArrow=classic;html=1;rounded=0;entryX=1;entryY=0;entryDx=0;entryDy=25;entryPerimeter=0;exitX=0.5;exitY=0;exitDx=0;exitDy=0;" edge="1" parent="1" source="29" target="28">
                    <mxGeometry width="50" height="50" relative="1" as="geometry">
                        <mxPoint x="650" y="355" as="sourcePoint"/>
                        <mxPoint x="700" y="305" as="targetPoint"/>
                        <Array as="points">
                            <mxPoint x="400" y="145"/>
                        </Array>
                    </mxGeometry>
                </mxCell>
                <mxCell id="33" value="Process Unit 2" style="text;align=center;fontStyle=1;verticalAlign=middle;spacingLeft=3;spacingRight=3;strokeColor=none;rotatable=0;points=[[0,0.5],[1,0.5]];portConstraint=eastwest;" vertex="1" parent="1">
                    <mxGeometry x="345" y="65" width="80" height="26" as="geometry"/>
                </mxCell>
                <mxCell id="34" value="API Gateway" style="html=1;" vertex="1" parent="1">
                    <mxGeometry x="340" y="305" width="90" height="30" as="geometry"/>
                </mxCell>
                <mxCell id="35" value="" style="endArrow=classic;html=1;rounded=0;entryX=0.5;entryY=1;entryDx=0;entryDy=0;exitX=0.25;exitY=0;exitDx=0;exitDy=0;" edge="1" parent="1" source="34" target="26">
                    <mxGeometry width="50" height="50" relative="1" as="geometry">
                        <mxPoint x="435" y="245" as="sourcePoint"/>
                        <mxPoint x="425" y="225" as="targetPoint"/>
                    </mxGeometry>
                </mxCell>
                <mxCell id="36" value="" style="endArrow=classic;html=1;rounded=0;entryX=0.5;entryY=1;entryDx=0;entryDy=0;exitX=0.75;exitY=0;exitDx=0;exitDy=0;" edge="1" parent="1" source="34" target="27">
                    <mxGeometry width="50" height="50" relative="1" as="geometry">
                        <mxPoint x="372.5" y="315" as="sourcePoint"/>
                        <mxPoint x="355" y="285" as="targetPoint"/>
                    </mxGeometry>
                </mxCell>
                <mxCell id="37" value="" style="html=1;" vertex="1" parent="1">
                    <mxGeometry x="560" y="40" width="170" height="300" as="geometry"/>
                </mxCell>
                <mxCell id="38" value="Service 1" style="html=1;" vertex="1" parent="1">
                    <mxGeometry x="570" y="230" width="70" height="40" as="geometry"/>
                </mxCell>
                <mxCell id="39" value="Service 2" style="html=1;" vertex="1" parent="1">
                    <mxGeometry x="650" y="230" width="70" height="40" as="geometry"/>
                </mxCell>
                <mxCell id="40" value="Local Storage" style="shape=cylinder3;whiteSpace=wrap;html=1;boundedLbl=1;backgroundOutline=1;size=15;" vertex="1" parent="1">
                    <mxGeometry x="570" y="115" width="50" height="70" as="geometry"/>
                </mxCell>
                <mxCell id="41" value="In-Memory&lt;br&gt;Data-Grid" style="html=1;" vertex="1" parent="1">
                    <mxGeometry x="630" y="160" width="90" height="50" as="geometry"/>
                </mxCell>
                <mxCell id="42" value="" style="endArrow=classic;html=1;exitX=0.5;exitY=0;exitDx=0;exitDy=0;entryX=0;entryY=0.5;entryDx=0;entryDy=0;rounded=0;" edge="1" parent="1" source="38" target="41">
                    <mxGeometry width="50" height="50" relative="1" as="geometry">
                        <mxPoint x="910" y="350" as="sourcePoint"/>
                        <mxPoint x="960" y="300" as="targetPoint"/>
                        <Array as="points">
                            <mxPoint x="605" y="200"/>
                        </Array>
                    </mxGeometry>
                </mxCell>
                <mxCell id="43" value="" style="endArrow=classic;html=1;rounded=0;entryX=0.5;entryY=1;entryDx=0;entryDy=0;exitX=0.5;exitY=0;exitDx=0;exitDy=0;" edge="1" parent="1" source="39" target="41">
                    <mxGeometry width="50" height="50" relative="1" as="geometry">
                        <mxPoint x="910" y="350" as="sourcePoint"/>
                        <mxPoint x="960" y="300" as="targetPoint"/>
                    </mxGeometry>
                </mxCell>
                <mxCell id="44" value="" style="endArrow=classic;html=1;rounded=0;entryX=1;entryY=0;entryDx=0;entryDy=25;entryPerimeter=0;exitX=0.5;exitY=0;exitDx=0;exitDy=0;" edge="1" parent="1" source="41" target="40">
                    <mxGeometry width="50" height="50" relative="1" as="geometry">
                        <mxPoint x="910" y="350" as="sourcePoint"/>
                        <mxPoint x="960" y="300" as="targetPoint"/>
                        <Array as="points">
                            <mxPoint x="660" y="140"/>
                        </Array>
                    </mxGeometry>
                </mxCell>
                <mxCell id="45" value="Process Unit 3" style="text;align=center;fontStyle=1;verticalAlign=middle;spacingLeft=3;spacingRight=3;strokeColor=none;rotatable=0;points=[[0,0.5],[1,0.5]];portConstraint=eastwest;" vertex="1" parent="1">
                    <mxGeometry x="605" y="60" width="80" height="26" as="geometry"/>
                </mxCell>
                <mxCell id="46" value="API Gateway" style="html=1;" vertex="1" parent="1">
                    <mxGeometry x="600" y="300" width="90" height="30" as="geometry"/>
                </mxCell>
                <mxCell id="47" value="" style="endArrow=classic;html=1;rounded=0;entryX=0.5;entryY=1;entryDx=0;entryDy=0;exitX=0.25;exitY=0;exitDx=0;exitDy=0;" edge="1" parent="1" source="46" target="38">
                    <mxGeometry width="50" height="50" relative="1" as="geometry">
                        <mxPoint x="695" y="240" as="sourcePoint"/>
                        <mxPoint x="685" y="220" as="targetPoint"/>
                    </mxGeometry>
                </mxCell>
                <mxCell id="48" value="" style="endArrow=classic;html=1;rounded=0;entryX=0.5;entryY=1;entryDx=0;entryDy=0;exitX=0.75;exitY=0;exitDx=0;exitDy=0;" edge="1" parent="1" source="46" target="39">
                    <mxGeometry width="50" height="50" relative="1" as="geometry">
                        <mxPoint x="632.5" y="310" as="sourcePoint"/>
                        <mxPoint x="615" y="280" as="targetPoint"/>
                    </mxGeometry>
                </mxCell>
                <mxCell id="49" value="" style="endArrow=classic;html=1;rounded=0;exitX=0.5;exitY=0;exitDx=0;exitDy=0;exitPerimeter=0;entryX=0.5;entryY=1;entryDx=0;entryDy=0;" edge="1" parent="1" source="12" target="14">
                    <mxGeometry width="50" height="50" relative="1" as="geometry">
                        <mxPoint x="390" y="405" as="sourcePoint"/>
                        <mxPoint x="440" y="355" as="targetPoint"/>
                    </mxGeometry>
                </mxCell>
                <mxCell id="50" value="" style="endArrow=classic;html=1;rounded=0;exitX=0.5;exitY=0;exitDx=0;exitDy=0;exitPerimeter=0;entryX=0.5;entryY=1;entryDx=0;entryDy=0;" edge="1" parent="1" source="23" target="14">
                    <mxGeometry width="50" height="50" relative="1" as="geometry">
                        <mxPoint x="235" y="595" as="sourcePoint"/>
                        <mxPoint x="355" y="505" as="targetPoint"/>
                    </mxGeometry>
                </mxCell>
                <mxCell id="51" value="" style="endArrow=classic;html=1;rounded=0;exitX=0.5;exitY=0;exitDx=0;exitDy=0;entryX=0.5;entryY=1;entryDx=0;entryDy=0;" edge="1" parent="1" source="14" target="17">
                    <mxGeometry width="50" height="50" relative="1" as="geometry">
                        <mxPoint x="235" y="595" as="sourcePoint"/>
                        <mxPoint x="355" y="505" as="targetPoint"/>
                    </mxGeometry>
                </mxCell>
                <mxCell id="52" value="" style="endArrow=classic;html=1;rounded=0;exitX=0.5;exitY=0;exitDx=0;exitDy=0;entryX=0.5;entryY=1;entryDx=0;entryDy=0;" edge="1" parent="1" source="14" target="34">
                    <mxGeometry width="50" height="50" relative="1" as="geometry">
                        <mxPoint x="355" y="455" as="sourcePoint"/>
                        <mxPoint x="135" y="345" as="targetPoint"/>
                    </mxGeometry>
                </mxCell>
                <mxCell id="55" value="" style="endArrow=classic;html=1;rounded=0;exitX=0.5;exitY=0;exitDx=0;exitDy=0;entryX=0;entryY=0.5;entryDx=0;entryDy=0;" edge="1" parent="1" source="24" target="37">
                    <mxGeometry width="50" height="50" relative="1" as="geometry">
                        <mxPoint x="390" y="285" as="sourcePoint"/>
                        <mxPoint x="440" y="235" as="targetPoint"/>
                        <Array as="points">
                            <mxPoint x="540" y="235"/>
                        </Array>
                    </mxGeometry>
                </mxCell>
                <mxCell id="56" value="" style="endArrow=classic;html=1;rounded=0;exitX=0.5;exitY=0;exitDx=0;exitDy=0;entryX=1;entryY=0.5;entryDx=0;entryDy=0;" edge="1" parent="1" source="20" target="7">
                    <mxGeometry width="50" height="50" relative="1" as="geometry">
                        <mxPoint x="390" y="405" as="sourcePoint"/>
                        <mxPoint x="440" y="355" as="targetPoint"/>
                        <Array as="points">
                            <mxPoint x="230" y="335"/>
                            <mxPoint x="240" y="225"/>
                        </Array>
                    </mxGeometry>
                </mxCell>
                <mxCell id="57" value="" style="endArrow=classic;html=1;rounded=0;exitX=0.75;exitY=0;exitDx=0;exitDy=0;entryX=0;entryY=0.5;entryDx=0;entryDy=0;" edge="1" parent="1" source="20" target="29">
                    <mxGeometry width="50" height="50" relative="1" as="geometry">
                        <mxPoint x="390" y="405" as="sourcePoint"/>
                        <mxPoint x="440" y="355" as="targetPoint"/>
                        <Array as="points">
                            <mxPoint x="260" y="265"/>
                        </Array>
                    </mxGeometry>
                </mxCell>
            </root>
        </mxGraphModel>
    </diagram>
</mxfile>